<?xml version="1.0" encoding="UTF-8"?>
<svg id="Layer_1" xmlns="http://www.w3.org/2000/svg" version="1.1" viewBox="0 0 813.36 1059.84">
  <!-- Generator: Adobe Illustrator 29.8.2, SVG Export Plug-In . SVG Version: 2.1.1 Build 3)  -->
  <defs>
    <style>
      .st0 {
        fill: #fff;
      }
    </style>
  </defs>
  <path class="st0" d="M0,175.78V.21h813.32v200.03c-.85-7.08-16.35-20.98-23.04-23.25-12.07-4.09-7.85,12.34-9.97,18.3-1.5,4.22-8.91,11.69-12.61,14.26-1.39.96-2.47,1.82-4.28,1.01-2.26-3.54-1.21-8.04-1.41-12.02-.42-8.42-.75-16.93-.52-25.42.45-16.75,4.11-25.57-10.53-37.88-4.61-3.88-17.83-11.62-20.31-2.06-1.39,5.35,1.23,9.77-1.2,15.11-3.56,7.81-26.54,29.89-33.9,36.62-4.15,3.8-8.51,8.16-14.14,9.37s-14.4-.92-14.41,7.17c-.02,9.32,15.35,27.05,25.04,26.51,2.01-.11,5.38-1.42,6.55-3.08,2.54-3.6-.28-9.3,1.27-13.6s15.5-18.95,20.19-19.64c2.27-.33,3.21.14,3.91,2.27,1.74,5.26,1.27,18.39,1.11,24.35-.37,13.41-2.86,27.37-.97,40.75,2.13,15.12,12.26,6.91,19.19.97,11.33-9.7,21.5-21.2,32.15-31.65,4.21-4.13,15.69-16.82,20.97-17.89s11.71,3.09,15.11-2.65c.69-1.16,1.71-4.36,1.82-5.62v857.68h-87.81v-23.03h23.27c.1,0,1.32-1.2,1.43-1.45.48-1.04.51-17.76.26-19.91s-1.01-2.87-3.12-3.12c-4.07-.47-15.16-.48-19.21,0-.8.09-3.11.95-3.11,1.69v21.35h-22.31c-.08,0-.85-.74-.95-.97-1.36-2.9.55-15.17-.26-19.41-.26-1.35-1.79-2.5-3.08-2.67-3.72-.49-15.43-.44-19.23.01-.8.09-3.11.95-3.11,1.69v21.35h-22.31c-.12,0-1.68-1.56-1.68-1.68v-21.35h-21.35c-.15,0-1.71,1.73-2.64,1.44v21.59h-23.99v-21.35c0-1.8-3.36-.73-4.08-.72-1.87.04-3.92.12-5.77.02-5.26-.27-9.84-2.24-15.09.46v21.59h-23.99v-23.03h-23.27c-.31,0-1.55,1.54-1.67,2.17-.68,3.58-.14,13.11-.03,17.28.02.76.99,3.58-.22,3.58h-21.11c-.12,0-1.68-1.56-1.68-1.68v-21.35h-23.27c-.12,0-1.68,1.56-1.68,1.68v21.35h-23.03v-21.35c0-.1-1.2-1.32-1.45-1.43-1.03-.47-17.35-.51-19.43-.26-.8.09-3.11.95-3.11,1.69v21.35h-22.31c-.12,0-1.68-1.56-1.68-1.68v-21.35h-23.27l-.72.72v21.11c0,.08-1.11,1.2-1.2,1.2h-22.79v-23.03h-23.27l-.72.72v21.11c0,.08-1.11,1.2-1.2,1.2h-22.79v-21.59c-7.72-3.54-15.96.65-23.99,0v21.59h-23.99v-21.59h-23.99v20.39c0,.08-1.11,1.2-1.2,1.2h-22.31v-19.91c0-.26-.74-1.07-.48-1.68h-23.99v21.59h-21.59v-21.59h-24.47v21.59h-20.63v-21.59h-23.03v19.91c0,.61-1.83,1.6-2.61,1.7-1.88.25-18.59.16-19.46-.26-.79-.39-.88-1.13-.98-1.9-.76-5.86.42-12.44.42-18.28,0-3.72-4.25-1.33-5.9-1.16-5.8.6-12.58-.47-18.49-.01v21.83c0,.11,1.5,1.2,1.68,1.2h22.31v23.03H0V178.17c1.59,2.86,3.53,5.65,7.09,6.14,3.2.44,6.1-2.34,9.03-2.74,7.63-1.04,34.66,4.44,41.43,8.38,5.32,3.1,21.47,22.92,22.07,28.81.39,3.8-2.32,11.6,1.49,14.32,2.5,1.79,4.94,1.24,7.66.5,11.06-3.01,34.57-23.94,34.59-35.98.02-10.3-9.67-4.82-14.64-5.54s-19.29-16.18-22.55-20.64c-6.59-9.04-13.45-38.72-11.1-49.39.93-4.23,5.6-11.66,1.48-15.34-1.51-1.34-4.22-1.62-6.14-1.31-5.18.84-20.64,15.38-21.73,20.48-2.18,10.2,6.39,8.14,10.07,13.49,2.21,3.21,4.83,15.14-1.33,14.8-1.94-.11-7.1-1.74-8.81-2.74-5.34-3.15-3.35-9.55-7.84-12.31-2.43-1.5-4.87-1.17-7.44-.28-6.7,2.3-26.83,23.55-30.35,30.1-1.23,2.28-1.65,4.73-2.97,6.86ZM349.22.83c-11.21.85-19.31,5.86-10.44,16.87,1.02,1.26,2.68,2.36,3.55,3.64,4.8,7.09,1.07,38.28.73,48.16-.24,7.21.91,16.69-.02,23.48-.82,5.98-8.59,8.84-9.44,12.15-3.02,11.84,12.27,11.5,19.79,11.15,2.49-.12,5.66-.9,8.14-.97,26.5-.75,56.12,5.05,71.84-22.2,15.73-27.27,9.7-82.86-26.38-90.83-13.55-2.99-43.39-2.54-57.77-1.45ZM522.37,114.69c-3.55,3.82-10.2,3.47-8.84,10.85,1.1,5.99,13.3,9.34,18.5,10.77,6.41,1.76,20.73,5.25,26.46,1.78,1.96-1.19,3.21-3.9,2.9-6.16-.34-2.41-3.24-5.04-3.71-7.34-1.03-5.09,1.01-14.99,1.96-20.37,1.82-10.28,9.44-45.81,15.66-52.46,4.07-4.35,11.4-6.41,8.68-14.39s-23.68-12.26-30.74-10.06c-9.74,3.04-23.01,26.41-31.89,33.84-1.39,1.16-3.8,3.46-5.7,2.82-1.12-.38-2.74-9.23-3.04-10.89-1.81-10.08-1.77-21.01-4.14-30.88-2.2-9.15-7.48-11.78-16.06-14.17-5.95-1.65-17.56-5.07-21.62,1.14-4.45,6.82,1.58,10.88,1.84,17.2.45,11.14-8.12,36.18-11.87,47.6-1.98,6.04-5.05,16.92-8.19,22.04s-13.95,2.42-11.24,11.52c2.54,8.51,24.57,13,31.9,10.58,3.14-1.04,5.2-3.37,4.65-6.82-.39-2.43-3.71-4.67-4.19-6.84-1.35-6.03,4.04-29.62,7.85-34.64,3.13-4.13,3.87,1.68,4.38,4.19,2.76,13.48.78,33.43,5.06,45.31,1.81,5.02,5.87,4.84,9.24,1.33,7.36-7.67,14.36-22.35,20.76-31.53,1.71-2.46,8.93-13.96,10.16-5.13.62,4.43-5.71,27.43-8.78,30.74ZM327.56,103.51c-1.33-1.44-4.22-2.65-5.82-4.01-8.6-7.33-5.03-20.29-18-27.58-3.33-1.87-6.79-2.22-9.88-4.07,1.17-5.26,4.32-10.16,5.61-15.53,3.66-15.28-4.34-32.15-20.11-36.14-17.54-4.43-47.56,5.6-64.65,11.85-5.45,1.99-10.68,4.52-9.84,11.3.66,5.32,6.36,4.84,9.37,7.41,4.54,3.87,10.73,29.67,12.38,36.55,2.13,8.86,7.71,30.1,5.76,38.2-1.16,4.82-7.18,5.68-5.17,11.58.31.91,2.52,3.28,3.41,3.79,8.28,4.78,37.38-2.69,44.28-9.32,1.86-1.79,2.55-3.8,2.63-6.37.23-7.28-4.44-4.93-8.36-7.97s-7.28-17.12-7.66-22.08c-.4-5.31-.53-9.68,6.09-7.04,11.61,4.62,13.71,33.4,30.48,38.6,8.89,2.76,27.69-.34,30.95-10.58.96-3.03.78-6.14-1.47-8.57ZM122.71,69.4c-3.4.58-8.12,4.41-10.15,7.12-7.85,10.47.77,17.89,4.93,27.13,5.06,11.25,7.99,31.6,9.6,44.13.8,6.27,3.33,25.04.92,30.04-1.78,3.7-5.77,4.33-4.58,10.08,2.41,11.61,20.35.66,25.76-2.81,4.65-2.99,11.44-7.16,11.11-13.4-.47-9.06-16.26-3.43-12.12-13.03,2.62-6.09,19.27-15.07,25.76-15.05,9.71.02.17,10.67,2.04,15.26,2.93,7.17,16.88,1.78,21.88-.43,6.23-2.75,24.37-12.67,25.63-19.47,1.83-9.85-6.3-7.98-12.54-10.75-3.07-1.36-6.2-3.95-8.9-5.98-18.5-13.9-34.65-31.46-54.31-44.04-6.76-4.33-16.76-10.2-25.04-8.8ZM654.86,69.41c-7.58.98-11.22,11.16-15.71,16.44-10.42,12.23-42.36,37.89-56.49,45.7-4.78,2.64-5.39,1.9-10.34,2.62-6.38.93-8.72,5.89-5.55,11.53,4.09,7.29,20.85,16.28,29.09,13.92,9.55-2.74-3.09-19.45,8.34-18.28,5.17.53,22.22,8.17,25.06,12.4,5.64,8.43-6.53,7.42-10.87,8.74-5.02,1.53-5.18,6.16-2.79,10.19,3.56,6,27.4,20.51,34.4,23.18,4.65,1.78,11.56,2.38,14.49-2.64,3.32-5.7-2.12-9.51-2.3-14.87-.58-18.07,8.31-43.54,10.92-62.37,1.54-11.14,3.56-31.88-4.51-40.9-2.65-2.96-9.81-6.17-13.76-5.66ZM429.49,259.28c15.28-1.7,24.13-14.21,20.36-29.3-5.93-23.7-55.79-24.67-74.85-23.02-19.34,1.68-62.7,13.05-60.7,38.6.7,8.97,9.49,19.06,18.94,18.46,2.91-.18,6.18-2.16,8.65.48v15.37c-8.7,4.04-18.33,5.42-27.37,8.62-12.04,4.26-25.42,11.45-35.7,19s-15.24,15.5-29.8,12.44c-30.43-6.37-65.87-56.36-96.2-22.81-14.27,15.79-30.79,56.56,5.3,55.19,3.9-.15,7.99-1.25,11.99-1,13.41.86,41.21,25.75,50.37,35.99,10.67,11.92,28.33,40.14,29.92,55.95,1.23,12.17-5.22,11.31-13.7,15.93-33.59,18.29-60.63,52.03-40.72,91.24,2.31,4.54,10.43,13.93,11.18,17.61,1.58,7.7-12.48,14.43-16.3,20.9-3.06,5.19-1.74,10.2-3.64,14.11-.92,1.9-5.36,4.72-7.06,6.85-7.7,9.64-4.47,22.66,2.25,31.82,11.28,15.39,32.42,22.31,51.02,21.42,9.69-.46,18.99-3.18,28.25-5.72,9.62,21,36.49,25.81,57.23,28.21,38.1,4.4,81.7,1.69,119.89-2.34,28.86-3.04,91.75-11.06,109.85-35.53,13.4-18.12-3.11-30.54-13.14-44.35l-8.18-103.35c14.93,2.91,30.96,6.81,46.24,4.73,7.23-.99,19.03-5.77,25.58-3.38,3.34,1.22,6.44,3.79,9.76,5.11,8.95,3.58,22.72,2.76,31.19-1.9,4.83-2.66,6.63-6.62,12.69-6.98,3.75-.22,7.6.73,11.56.52,26.69-1.4,58.47-25.73,57.31-54.46-.14-3.51-2.34-7.87-1.89-11,.32-2.17,3.26-5.4,4.18-7.82,2.31-6.07,2.39-14.77-.94-20.43-1.33-2.27-4.8-5.26-5.16-7.8-.51-3.51,1.93-7.54,2.32-11.05,1.89-16.82-11.7-30.79-27.2-34.58-11.97-2.93-22.99.29-34.64,2.74,1.22-22.05-7.51-52.79-32.93-56.55-10.83-1.6-24.08,2.38-29.54,12.57-7.81,14.56,3.06,31.03,4.34,45.72,1.38,15.73-4.07,22.3-8.58,35.91-3.54,10.65-3.63,20.42-3.44,31.58-2.6,2.34-5.59,4.31-7.83,7.04-6.99,8.52-7.64,20.55-7.51,31.11-11.95,6.99-26.88-.38-36.62-8.09-13.51-10.7-14.29-17.19-16.08-33.81-1.92-17.82-2.03-35.84-2.86-53.74-.28-6.03-.95-12.13-1.35-18.15,10.9-11.42,9.98-27.64,1.82-40.36-3.68-5.74-9.15-8.01-1.7-14.63,11.97-10.65,30.99-11.27,46.09-11.04,4.9.08,12.54,2.64,15.29-2.91s.93-10.29-4.97-11.72c-9.85-2.38-31.55.06-41.77,2.41-12.78,2.94-24.17,8.58-32.48,18.88-9.42-1-1.84-11.01,1.31-15.02,9.08-11.55,28.54-24.5,43.42-25.67,8.3-.65,25.95,3.6,32.54-1.05,3.33-2.35,2.69-6.58.72-9.68-3.97-6.23-20.05-9.06-27.09-9.85-38.91-4.37-64.8,8.9-90.63,36.39-4.81,5.12-4.8,8.04-12.34,10.2-12.47,3.58-18.91-.5-16.64-14ZM117.56,299.05c-6.65-20.12-45.89-30.91-59.22-13.39-7.12,9.37-3.38,19.51,8.6,20.58,11.05.99,19.59-5.54,29.79-7.14,6.95-1.09,13.84.32,20.82-.05ZM113.71,321.14c-7.78-1.98-16.27-.42-23.87,1.78-11.33,3.27-27.19,11.39-33.3,21.87-7.77,13.33-6.08,34.48,13.75,32.45,14.55-1.49,20.35-28.82,28.16-39.01,2.01-2.62,16.9-14.7,15.26-17.09ZM138.67,373.88c-4.24-.29-7.67,5.33-9.99,8.49-9.27,12.61-21.56,36.62-13.78,51.98,5.47,10.81,22.15,9.75,28.29-.06,9.65-15.45-4.44-43.47-4.52-60.4ZM350.66,730.44c-91.21,2.3-81.47,157.2,16.5,135.94,76.97-16.71,63.34-137.95-16.5-135.94ZM441.32,730.41c-17.48,3.01-32.97,52.87-5.87,49.77,9.54-1.09,11.16-12.36,15.68-18.38,5.84-7.79,10.6.12,11.42,6.64,1.81,14.3-1.65,31.51-2.39,46.05-.39,7.59,1.12,16.06-1.69,23.25s-10.73,5.58-13.88,11.55c-3.43,6.49,2.1,11.88,7.9,14.11,11.73,4.51,48.93,5.64,59.99.03,6.2-3.15,9.66-9.99,4.08-15.63-5.55-5.6-11.24-4.91-13.1-14.73-2.52-13.33-1.14-34.04-.61-47.85.24-6.19-.08-12.39,1.2-18.47,1.44-6.87,5.45-12.28,11.48-5.23,4.21,4.92,4.55,13.56,10.2,17.15,4.57,2.91,13.13,1.83,16.68-2.36,8.87-10.45-2.38-44.1-16.8-45.97-4.42-.57-9.77,1.78-14.36,2.35-14.52,1.81-35.24,1.58-49.89.48-5.78-.43-15.1-3.61-20.04-2.76ZM608.33,730.44c-87.09,6.35-77.81,152.58,16.02,136.42,82.61-14.23,66.89-142.46-16.02-136.42ZM126.82,851.8c-1.98,2.22-2.15,7.6-.55,10.09,4.02,6.25,23.71,5.65,30.26,4.51s16.58-4.55,13.55-12.81c-1.56-4.24-6.69-4.56-8.24-9.5-2.24-7.13-2.09-25.32-1.09-32.96.51-3.9,1.64-11.05,5.96-5.01,8.06,11.27,11.33,33.58,18.24,47,5.25,10.19,9.57,14.06,15.7,1.74,4.9-9.83,13.5-44.39,21.55-48.97,6.32-3.59,4.82,7.78,5.73,11.02-.91,8.62-.51,17.56-2.74,26.03-1.71,6.47-3.87,4.95-7.37,8.95-5.25,6,.25,11.45,6.12,13.58,8.78,3.18,39.69,3,47.97-1.23,5.19-2.65,7.26-9.19,3.02-13.76-3.59-3.88-6.45-2.63-7.94-9.33-1.68-7.53-1.92-19.2-2.16-27.11-.43-14.8-.49-31.88.98-46.55.24-2.42.54-5.63,1.19-7.93,2.07-7.35,11.29-8.47,10.32-17.98-.48-4.76-5.21-7.57-9.34-8.89-9.24-2.94-27.76-2.85-35.72,3.18-8.07,6.1-16.29,32.57-21.07,42.74-1.21,2.57-5.44,12.21-8.48,12.12-3.32-1.55-5.43-6.34-7.21-9.56-3.48-6.3-7.01-13.71-9.91-20.31-2.62-5.97-7.26-21.41-11.68-25.26-5.12-4.47-23.43-4.7-30.25-4.34-8.56.45-19.96,2.31-18.33,13.57,1.17,8.05,10.13,6.19,12.22,15.13,3.88,16.61.28,44.54-.37,62.21-.25,6.87,1.8,20.26-3.15,25.15-1.85,1.83-6.02,3.15-7.24,4.51ZM805.16,968.7H6.24v14.87h798.92v-14.87Z"/>
  <path d="M82.53,1059.84v-23.03h-22.31c-.18,0-1.68-1.09-1.68-1.2v-21.83c5.91-.46,12.69.61,18.49.01,1.65-.17,5.9-2.56,5.9,1.16,0,5.84-1.18,12.42-.42,18.28.1.77.19,1.51.98,1.9.87.43,17.58.51,19.46.26.78-.1,2.61-1.1,2.61-1.7v-19.91h23.03v21.59h20.63v-21.59h24.47v21.59h21.59v-21.59h23.99c-.26.61.48,1.42.48,1.68v19.91h22.31c.08,0,1.2-1.11,1.2-1.2v-20.39h23.99v21.59h23.99v-21.59c8.03.65,16.27-3.54,23.99,0v21.59h22.79c.08,0,1.2-1.11,1.2-1.2v-21.11l.72-.72h23.27v23.03h22.79c.08,0,1.2-1.11,1.2-1.2v-21.11l.72-.72h23.27v21.35c0,.12,1.56,1.68,1.68,1.68h22.31v-21.35c0-.74,2.31-1.59,3.11-1.69,2.09-.25,18.4-.21,19.43.26.25.11,1.45,1.33,1.45,1.43v21.35h23.03v-21.35c0-.12,1.56-1.68,1.68-1.68h23.27v21.35c0,.12,1.56,1.68,1.68,1.68h21.11c1.21,0,.24-2.82.22-3.58-.11-4.17-.65-13.7.03-17.28.12-.63,1.35-2.17,1.67-2.17h23.27v23.03h23.99v-21.59c5.25-2.7,9.83-.73,15.09-.46,1.85.1,3.9.02,5.77-.02.72-.01,4.08-1.08,4.08.72v21.35h23.99v-21.59c.93.29,2.49-1.44,2.64-1.44h21.35v21.35c0,.12,1.56,1.68,1.68,1.68h22.31v-21.35c0-.74,2.31-1.59,3.11-1.69,3.8-.45,15.51-.51,19.23-.01,1.29.17,2.83,1.33,3.08,2.67.81,4.24-1.1,16.51.26,19.41.11.23.87.97.95.97h22.31v-21.35c0-.74,2.31-1.59,3.11-1.69,4.06-.48,15.15-.47,19.21,0,2.11.24,2.87,1,3.12,3.12s.22,18.86-.26,19.91c-.11.25-1.33,1.45-1.43,1.45h-23.27v23.03h-24.47v-23.03h-23.51c-.55,6.29.74,13.78.01,19.92-.16,1.37-.68,2.07-1.45,3.11h-22.55c-.69-.97-1.29-1.28-1.47-2.61-.81-6.15.66-14.07.03-20.41h-22.31c-.61,0-1.6,1.83-1.7,2.61-.82,6.13.66,14.08.03,20.41h-23.51c-.69-.97-1.29-1.28-1.47-2.61-.81-6.15.66-14.07.03-20.41h-23.99c.52.91.85,1.53.97,2.63.46,4.34.39,13.37.02,17.79-.09,1.1-.2,1.78-.99,2.61h-23.51c-.69-.97-1.29-1.28-1.47-2.61-.81-6.15.66-14.07.03-20.41h-23.03v23.03h-23.51c-2.5-2.15-1-3.99-.94-6.46.13-5.53.21-11.05.46-16.57h-23.99v23.03h-23.99c-1.97-7.33-.52-15.42-.96-23.03h-23.03v23.03h-23.99v-23.03h-23.99v23.03h-23.99c1.49-7.61-2.74-15.52,0-23.03h-23.99v23.03h-23.51c-.69-.97-1.29-1.28-1.47-2.61-.81-6.15.66-14.07.03-20.41h-23.03v23.03h-24.95v-23.03h-23.03v23.03h-23.99v-23.03h-23.03v23.03h-22.55c-3.04-7.34-.71-15.4-.48-23.03h-22.55c.17,7.69,2.49,15.58-.48,23.03h-23.03v-23.03h-20.63v23.03h-23.99Z"/>
  <path d="M813.32,200.24c.07.56.05,1.35,0,1.92-.11,1.25-1.13,4.46-1.82,5.62-3.39,5.73-9.86,1.58-15.11,2.65s-16.76,13.77-20.97,17.89c-10.65,10.45-20.82,21.95-32.15,31.65-6.93,5.94-17.07,14.15-19.19-.97-1.88-13.38.61-27.34.97-40.75.16-5.96.63-19.09-1.11-24.35-.7-2.12-1.65-2.6-3.91-2.27-4.69.69-18.57,15.14-20.19,19.64s1.27,10.01-1.27,13.6c-1.17,1.66-4.54,2.97-6.55,3.08-9.69.54-25.06-17.2-25.04-26.51.02-8.09,9.04-6.02,14.41-7.17s9.99-5.57,14.14-9.37c7.36-6.73,30.35-28.81,33.9-36.62,2.43-5.34-.19-9.76,1.2-15.11,2.48-9.55,15.7-1.82,20.31,2.06,14.64,12.31,10.99,21.13,10.53,37.88-.23,8.49.1,17,.52,25.42.2,3.98-.86,8.47,1.41,12.02,1.81.81,2.9-.05,4.28-1.01,3.7-2.56,11.11-10.04,12.61-14.26,2.13-5.97-2.09-22.39,9.97-18.3,6.7,2.27,22.19,16.17,23.04,23.25Z"/>
  <path d="M0,178.17v-2.4c1.32-2.13,1.74-4.59,2.97-6.86,3.53-6.54,23.65-27.8,30.35-30.1,2.58-.88,5.01-1.22,7.44.28,4.48,2.76,2.49,9.17,7.84,12.31,1.71,1,6.87,2.64,8.81,2.74,6.16.33,3.54-11.59,1.33-14.8-3.68-5.35-12.25-3.29-10.07-13.49,1.09-5.1,16.56-19.65,21.73-20.48,1.92-.31,4.63-.03,6.14,1.31,4.13,3.68-.55,11.12-1.48,15.34-2.34,10.67,4.51,40.35,11.1,49.39,3.25,4.47,17.55,19.92,22.55,20.64s14.65-4.76,14.64,5.54c-.02,12.04-23.53,32.97-34.59,35.98-2.71.74-5.15,1.28-7.66-.5-3.81-2.72-1.1-10.51-1.49-14.32-.61-5.89-16.75-25.71-22.07-28.81-6.77-3.94-33.81-9.43-41.43-8.38-2.93.4-5.84,3.19-9.03,2.74-3.56-.5-5.49-3.28-7.09-6.14Z"/>
  <rect class="st0" x="387.22" y="1036.81" width="23.99" height="23.03"/>
  <path class="st0" d="M628.1,1059.84c.64-6.33-.85-14.28-.03-20.41.1-.78,1.1-2.61,1.7-2.61h22.31c.63,6.35-.84,14.26-.03,20.41.18,1.33.78,1.65,1.47,2.61h-25.43Z"/>
  <path class="st0" d="M339.24,1059.84v-23.03h23.99c-2.74,7.51,1.49,15.41,0,23.03h-23.99Z"/>
  <path class="st0" d="M483.19,1059.84v-23.03h23.99c-.25,5.52-.33,11.03-.46,16.57-.06,2.47-1.56,4.31.94,6.46h-24.47Z"/>
  <path class="st0" d="M676.08,1059.84c.78-1.04,1.29-1.74,1.45-3.11.73-6.14-.56-13.63-.01-19.92h23.51v23.03h-24.95Z"/>
  <path class="st0" d="M579.16,1059.84c.79-.82.9-1.5.99-2.61.37-4.42.44-13.45-.02-17.79-.12-1.09-.45-1.72-.97-2.63h23.99c.63,6.35-.84,14.26-.03,20.41.18,1.33.78,1.65,1.47,2.61h-25.43Z"/>
  <path class="st0" d="M435.21,1059.84v-23.03h23.03c.44,7.6-1.01,15.69.96,23.03h-23.99Z"/>
  <path class="st0" d="M291.26,1059.84v-23.03h23.03c.63,6.35-.84,14.26-.03,20.41.18,1.33.78,1.65,1.47,2.61h-24.47Z"/>
  <path class="st0" d="M531.17,1059.84v-23.03h23.03c.63,6.35-.84,14.26-.03,20.41.18,1.33.78,1.65,1.47,2.61h-24.47Z"/>
  <rect class="st0" x="196.25" y="1036.81" width="23.03" height="23.03"/>
  <rect class="st0" x="243.28" y="1036.81" width="23.03" height="23.03"/>
  <path class="st0" d="M150.19,1059.84c2.97-7.44.65-15.34.48-23.03h22.55c-.23,7.63-2.56,15.68.48,23.03h-23.51Z"/>
  <rect class="st0" x="106.52" y="1036.81" width="20.63" height="23.03"/>
  <path d="M429.49,259.28c-2.27,13.5,4.17,17.58,16.64,14,7.55-2.17,7.53-5.08,12.34-10.2,25.83-27.49,51.72-40.76,90.63-36.39,7.04.79,23.13,3.62,27.09,9.85,1.97,3.09,2.61,7.33-.72,9.68-6.59,4.65-24.24.39-32.54,1.05-14.87,1.17-34.34,14.12-43.42,25.67-3.16,4.01-10.73,14.02-1.31,15.02,8.31-10.3,19.71-15.94,32.48-18.88,10.22-2.35,31.92-4.8,41.77-2.41,5.9,1.43,7.6,6.42,4.97,11.72s-10.38,2.98-15.29,2.91c-15.1-.23-34.12.4-46.09,11.04-7.44,6.62-1.98,8.89,1.7,14.63,8.16,12.72,9.08,28.94-1.82,40.36.4,6.03,1.07,12.12,1.35,18.15.83,17.9.94,35.92,2.86,53.74,1.79,16.62,2.58,23.11,16.08,33.81,9.74,7.71,24.66,15.08,36.62,8.09-.13-10.56.52-22.59,7.51-31.11,2.24-2.73,5.24-4.7,7.83-7.04-.18-11.15-.09-20.93,3.44-31.58,4.52-13.6,9.96-20.17,8.58-35.91-1.29-14.69-12.16-31.16-4.34-45.72,5.46-10.18,18.71-14.17,29.54-12.57,25.41,3.76,34.15,34.5,32.93,56.55,11.65-2.45,22.68-5.67,34.64-2.74,15.5,3.8,29.09,17.77,27.2,34.58-.39,3.5-2.83,7.54-2.32,11.05.37,2.53,3.83,5.53,5.16,7.8,3.32,5.66,3.25,14.36.94,20.43-.92,2.42-3.87,5.64-4.18,7.82-.46,3.13,1.74,7.49,1.89,11,1.16,28.73-30.62,53.06-57.31,54.46-3.96.21-7.81-.74-11.56-.52-6.05.36-7.85,4.32-12.69,6.98-8.47,4.66-22.24,5.48-31.19,1.9-3.32-1.33-6.42-3.89-9.76-5.11-6.55-2.39-18.35,2.39-25.58,3.38-15.27,2.08-31.31-1.82-46.24-4.73l8.18,103.35c10.02,13.82,26.54,26.23,13.14,44.35-18.1,24.47-80.99,32.49-109.85,35.53-38.19,4.03-81.8,6.74-119.89,2.34-20.73-2.39-47.61-7.2-57.23-28.21-9.26,2.54-18.56,5.25-28.25,5.72-18.59.89-39.74-6.04-51.02-21.42-6.72-9.16-9.94-22.18-2.25-31.82,1.7-2.13,6.14-4.95,7.06-6.85,1.9-3.91.59-8.92,3.64-14.11,3.82-6.48,17.88-13.21,16.3-20.9-.76-3.68-8.88-13.06-11.18-17.61-19.92-39.2,7.13-72.94,40.72-91.24,8.48-4.62,14.93-3.76,13.7-15.93-1.59-15.81-19.25-44.03-29.92-55.95-9.16-10.23-36.96-35.12-50.37-35.99-4-.26-8.09.85-11.99,1-36.1,1.37-19.58-39.4-5.3-55.19,30.33-33.55,65.77,16.43,96.2,22.81,14.57,3.05,19.55-4.91,29.8-12.44s23.66-14.74,35.7-19c9.03-3.19,18.67-4.58,27.37-8.62v-15.37c-2.47-2.64-5.75-.66-8.65-.48-9.45.59-18.23-9.5-18.94-18.46-2.01-25.55,41.36-36.92,60.7-38.6,19.06-1.66,68.93-.68,74.85,23.02,3.77,15.09-5.08,27.6-20.36,29.3ZM335.4,249.17c2.76-8.85,15.04-10.63,23.03-12.24,19.25-3.9,47.72-6.86,66.22.5,1.93.77,7.53,4.54,9.16,3.38,1.39-5.34-.35-9.11-5.16-11.7-20.05-10.78-73.04-7.56-92.24,4.99-2.65,1.73-4.46,3.34-4.84,6.67s-.31,7.67,3.83,8.4ZM410.11,254.06c-1.36.41-1.65,3.13-1.76,4.47-.31,3.45-.27,16.67,4.09,17.49,1.47.28,3.33-.28,4.27-1.46,2.01-2.52-.57-12.41-.32-15.93-.71-3.08-2.77-5.63-6.27-4.57ZM369.47,259.24l-12,.96.96,15.83,12-.96-.96-15.83ZM499.98,316.8c-5.86-13.46-23.58-19.31-36.94-22.31-49.11-11.02-129.09-3.97-171.74,24.51-5.69,3.8-17.68,13.31-20.39,19.43-3.55,8.04,4.52,2.77,7.35,1.11,11.22-6.58,19.8-13.5,32.2-18.65,36.6-15.22,100.55-21.08,139.85-17.04,17.09,1.76,33.98,6.08,49.66,12.95ZM173.09,302.05c-8.28,1.29-19.37,17.77-20.38,25.67-.71,5.54.13,11.88,7.21,9.6,4.91-1.58,8.88-7.27,11.58-11.44,3.15-4.85,15.43-25.98,1.59-23.83ZM622.1,495.25c3,.34,6.52-.25,9.6,0,.56-.54.93-.6.49-1.45-.89-1.72-7.66-6.35-9.62-8.14-3.94-3.6-11.59-10.57-8.75-16.45,2.2-4.55,9.48.64,12.23,2.42,4.45,2.88,7.93,6.53,12.96,8.63,20.59,8.58,47.71,2.16,61.53-15.49,12.92-16.5,9.32-32.15-13.19-33.8-8.99-.66-33.56,1.87-35.13,13.31-1.8,13.06,15.77,16.41,25.33,14.29,3.68-.82,14.92-6.88,14.9.94-.02,7-14.61,9.91-19.96,10.31-16.8,1.25-34.93-10.08-33.33-28.53.43-4.95,5.55-10.13,5.27-12.91-.24-2.37-4.12-6.72-5.36-9.08-3.88-7.41-2.14-11.61,1.04-18.76-1.18-3.09-3.72-5.41-5.03-8.43-7.63-17.67,8.3-22.86,9.37-38.11.96-13.71-3.61-33.39-16.5-40.64-8.5-4.77-19.54-1.46-20.41,9.01-.94,11.34,7.95,26.78,8,39.75.11,25.75-22.57,41.58-10.39,70.45,1.26,2.99,7.46,12.15,7.06,14.34-.08.45-1.02,2-1.36,2.38-3.67,4.06-10.14-1.51-12.48-4.67s-4.79-13.27-9.81-5.96c-4.6,6.69-1.55,22.47,1.42,29.7,5,12.22,18.55,25.34,32.14,26.87ZM196.6,313.51c-1.64.45-4.44,5.14-4.2,6.86.19,1.34,5.17,5.39,6.51,6.49,13.26,10.9,29.52,18.61,43.56,28.4,7.32,5.1,18.97,16.87,26.07,19.98,5.23,2.29,3.16-3.36,2.1-6.42-8.75-25.29-50.46-42.5-72.12-55.02-.61-.32-1.23-.49-1.92-.3ZM418.8,325.1c-26.12.24-83.9,5.29-104.25,21.94-8.29,6.78-7.07,13.81-6.95,23.23.75,58.3,8.1,116.91,11.97,175.11.91,13.68.73,27.61,1.93,41.24.66,7.49,6.11,13.89,13.33,15.94,13.38,3.8,42.11-3.04,56.96-4.66,23.47-2.55,47.02-3.14,70.55-2.9,9.66.1,31.5,2.51,39.58-2.12,7.94-4.55,5.51-15.08,5.27-22.56-1.73-53.96-9.41-107.42-13.44-161.17-1.07-14.29-.94-28.98-2.4-43.17-2.78-26.99-7.44-34.23-34.86-38.54-11.93-1.87-25.58-2.45-37.69-2.34ZM676.94,364.43c-8.81.85-28.76,7.32-30.49,17.48-.46,2.69.04,7.22,2.9,8.41,2.36.98,9.29-2.93,12.23-3.83,7.55-2.3,18.4-3.3,26.25-2.53,4.58.45,10.39,3.19,14.96,3.32,6.2.17,2.94-9.36,1.03-12.58-4.8-8.09-18.12-11.11-26.87-10.27ZM676.47,397.05c-8.63.69-31.99,7.31-25.12,20.03,4.15,7.68,16.95,1.53,23.54.94s16.67.08,23.1,1.84c5.51,1.51,12,7.11,13.07-2.14,2.04-17.54-21.48-21.72-34.59-20.67ZM254.29,499.58c-15.28,2.55-29.4,17.43-17.93,32.56.59.78,4.78,5.09,5.34,5.25,2.06.57,4.63-2.83,6.71-3.67,2.2-.89,10.99-1.41,11.6-3.3l-5.72-30.84ZM262.11,584.36c-.25-.26-.47-.83-.5-1.19-.22-2.75,4.63-8.89,5.52-12.51,1.73-7-.02-26.26-10.64-24.54-5.05.82-3.7,8.12-4.16,11.67-1.64,12.71-14.71,24.48-27.9,22.24-2.88-.49-9.98-5.6-8.79,2.05,1.07,6.85,9,10.99,15.39,11.05,4.69.05,22.12-4.85,16.17,5.58-3.85,6.75-19.02,5.26-20.49,7.34-.98,5.4-5.21,9.55-3.75,15.26.72,2.82,8.12,14.46.5,12.94-4.81-.97-9.24-7.25-10.29-11.79-1.57-6.8,1.14-10.12-8.04-10.67-15.6-.95-20.06,9.19-11.49,21.56,11.49,16.61,37.59,18.61,55.48,13.34,28.4-8.38,42.42-41.46,34.79-69.04-.27-.98-2-6.53-2.56-6.65-2.87-.63-6.82,7.26-8.63,9.1-1.43,1.45-9.22,5.74-10.62,4.26ZM215.92,601.74c1.26-1.13-8.62-11.37-10.34-11.54s-8.51,6.74-6.97,9.29c.3.46.83.6,1.33.7,4.95.94,10.91.98,15.98,1.55ZM437.99,613.39c-41.7,1.04-116.41,5.15-150.72,29.69-3.09,2.21-7.78,5.73-6.47,10.13.18.61,1.76,2.24,2.45,2.18,1.39-.12,8.39-4.75,10.56-5.76,33.25-15.42,88.64-20.03,125.34-21.48,28.57-1.13,59.34-1.55,87.65,3.48,8.47,1.5,16.91,5.72,24.25,6.94,4.04.67,4.04-1.13,3.25-4.69-4.15-18.76-40.19-19.47-55.18-20.15-.95-.04-1.88-.54-2.86-.49l-38.27.16Z"/>
  <path d="M126.82,851.8c1.22-1.37,5.39-2.68,7.24-4.51,4.95-4.89,2.9-18.28,3.15-25.15.64-17.67,4.24-45.6.37-62.21-2.09-8.94-11.05-7.08-12.22-15.13-1.64-11.26,9.76-13.11,18.33-13.57,6.82-.36,25.12-.13,30.25,4.34,4.42,3.86,9.06,19.3,11.68,25.26,2.9,6.61,6.43,14.01,9.91,20.31,1.77,3.22,3.88,8.01,7.21,9.56,3.04.09,7.27-9.55,8.48-12.12,4.78-10.16,13-36.63,21.07-42.74,7.97-6.03,26.48-6.12,35.72-3.18,4.13,1.32,8.86,4.13,9.34,8.89.96,9.51-8.25,10.63-10.32,17.98-.65,2.3-.95,5.5-1.19,7.93-1.47,14.67-1.41,31.75-.98,46.55.23,7.91.48,19.58,2.16,27.11,1.49,6.7,4.34,5.46,7.94,9.33,4.24,4.57,2.17,11.11-3.02,13.76-8.28,4.24-39.19,4.41-47.97,1.23-5.87-2.12-11.37-7.58-6.12-13.58,3.5-4,5.66-2.47,7.37-8.95,2.23-8.47,1.83-17.41,2.74-26.03-.91-3.23.59-14.61-5.73-11.02-8.05,4.58-16.66,39.14-21.55,48.97-6.13,12.32-10.45,8.45-15.7-1.74-6.91-13.42-10.19-35.74-18.24-47-4.32-6.04-5.45,1.11-5.96,5.01-1,7.64-1.15,25.83,1.09,32.96,1.56,4.94,6.69,5.26,8.24,9.5,3.03,8.26-7.29,11.71-13.55,12.81s-26.24,1.74-30.26-4.51c-1.6-2.48-1.44-7.87.55-10.09Z"/>
  <rect x="6.24" y="968.7" width="798.92" height="14.87"/>
  <path d="M608.33,730.44c82.91-6.05,98.63,122.19,16.02,136.42-93.83,16.16-103.11-130.07-16.02-136.42ZM602.54,758.23c-11.66,1.97-11.68,20.98-10.91,29.86,1.35,15.5,11.21,57.17,33.58,50.85,15.73-4.44,10.09-30.54,7.06-42.08-3.51-13.37-11.71-41.68-29.74-38.64Z"/>
  <path d="M350.66,730.44c79.84-2.01,93.47,119.23,16.5,135.94-97.97,21.26-107.71-133.64-16.5-135.94ZM342.47,758.23c-12.13,2.05-12.3,20.61-11.39,29.86,1.54,15.68,11.78,58.56,34.92,50.75,16.2-5.47,8.22-35.74,4.66-47.62s-11.48-35.81-28.19-32.99Z"/>
  <path d="M522.37,114.69c3.07-3.31,9.39-26.31,8.78-30.74-1.23-8.83-8.45,2.68-10.16,5.13-6.4,9.18-13.4,23.87-20.76,31.53-3.37,3.51-7.43,3.69-9.24-1.33-4.28-11.88-2.31-31.83-5.06-45.31-.51-2.5-1.25-8.32-4.38-4.19-3.81,5.03-9.2,28.62-7.85,34.64.49,2.18,3.81,4.42,4.19,6.84.55,3.45-1.5,5.78-4.65,6.82-7.33,2.42-29.37-2.07-31.9-10.58-2.71-9.1,8.03-6.29,11.24-11.52s6.21-16,8.19-22.04c3.74-11.43,12.32-36.46,11.87-47.6-.26-6.32-6.29-10.38-1.84-17.2,4.06-6.21,15.66-2.79,21.62-1.14,8.57,2.38,13.86,5.02,16.06,14.17,2.37,9.87,2.33,20.8,4.14,30.88.3,1.66,1.92,10.51,3.04,10.89,1.9.65,4.31-1.65,5.7-2.82,8.88-7.43,22.15-30.8,31.89-33.84,7.06-2.2,28.08,2.23,30.74,10.06s-4.61,10.04-8.68,14.39c-6.23,6.65-13.84,42.18-15.66,52.46-.95,5.38-3,15.28-1.96,20.37.47,2.3,3.37,4.93,3.71,7.34.32,2.26-.94,4.97-2.9,6.16-5.73,3.48-20.05-.01-26.46-1.78-5.19-1.43-17.39-4.78-18.5-10.77-1.36-7.38,5.29-7.02,8.84-10.85Z"/>
  <path d="M441.32,730.41c4.95-.85,14.27,2.32,20.04,2.76,14.65,1.1,35.37,1.33,49.89-.48,4.59-.57,9.95-2.92,14.36-2.35,14.42,1.87,25.66,35.52,16.8,45.97-3.55,4.18-12.11,5.27-16.68,2.36-5.65-3.59-5.99-12.23-10.2-17.15-6.03-7.05-10.04-1.64-11.48,5.23-1.28,6.08-.96,12.28-1.2,18.47-.53,13.82-1.91,34.52.61,47.85,1.86,9.82,7.55,9.13,13.1,14.73,5.58,5.64,2.12,12.48-4.08,15.63-11.06,5.61-48.25,4.48-59.99-.03-5.8-2.23-11.33-7.62-7.9-14.11,3.15-5.97,10.94-4.01,13.88-11.55s1.3-15.67,1.69-23.25c.74-14.53,4.2-31.75,2.39-46.05-.83-6.52-5.58-14.43-11.42-6.64-4.51,6.02-6.14,17.3-15.68,18.38-27.1,3.09-11.61-46.77,5.87-49.77Z"/>
  <path d="M349.22.83c14.38-1.09,44.22-1.54,57.77,1.45,36.08,7.97,42.11,63.56,26.38,90.83-15.72,27.26-45.34,21.45-71.84,22.2-2.48.07-5.65.86-8.14.97-7.52.35-22.81.69-19.79-11.15.84-3.31,8.61-6.17,9.44-12.15.94-6.8-.22-16.27.02-23.48.33-9.87,4.06-41.07-.73-48.16-.87-1.28-2.53-2.38-3.55-3.64-8.87-11.01-.76-16.02,10.44-16.87ZM381.34,20.47c-2.23.41-3.94,2.24-4.2,4.43-.56,4.76.55,11.61.51,16.82-.11,14.35-1.56,29.27-.02,43.62.71,6.59,1.07,12.97,9.35,12.23,24.28-2.18,19.82-46.27,14.04-61.99-2.91-7.92-10.07-16.89-19.68-15.12Z"/>
  <path d="M327.56,103.51c2.26,2.44,2.44,5.54,1.47,8.57-3.25,10.24-22.06,13.34-30.95,10.58-16.77-5.2-18.87-33.98-30.48-38.6-6.62-2.63-6.49,1.73-6.09,7.04.37,4.96,3.79,19.08,7.66,22.08s8.59.69,8.36,7.97c-.08,2.57-.77,4.58-2.63,6.37-6.89,6.63-35.99,14.1-44.28,9.32-.88-.51-3.1-2.87-3.41-3.79-2.01-5.9,4.01-6.76,5.17-11.58,1.95-8.1-3.63-29.34-5.76-38.2-1.65-6.88-7.85-32.68-12.38-36.55-3.02-2.57-8.71-2.09-9.37-7.41-.84-6.77,4.39-9.3,9.84-11.3,17.09-6.24,47.11-16.28,64.65-11.85,15.77,3.99,23.77,20.86,20.11,36.14-1.29,5.37-4.44,10.26-5.61,15.53,3.09,1.85,6.54,2.2,9.88,4.07,12.97,7.29,9.4,20.25,18,27.58,1.6,1.36,4.49,2.58,5.82,4.01ZM253.22,36.3c-4.92.9-3.69,5.49-3.09,9.1.85,5.11,3.03,15.34,5.04,19.9,3.04,6.92,9.83,1.97,10.92-3.19,1.71-8.05-.99-27.99-12.87-25.81Z"/>
  <path d="M654.86,69.41c3.95-.51,11.12,2.7,13.76,5.66,8.07,9.02,6.05,29.77,4.51,40.9-2.61,18.83-11.51,44.3-10.92,62.37.17,5.36,5.62,9.18,2.3,14.87-2.93,5.02-9.84,4.42-14.49,2.64-7-2.67-30.83-17.18-34.4-23.18-2.39-4.03-2.22-8.66,2.79-10.19,4.33-1.32,16.51-.31,10.87-8.74-2.84-4.24-19.89-11.88-25.06-12.4-11.43-1.17,1.21,15.55-8.34,18.28-8.24,2.36-25.01-6.63-29.09-13.92-3.17-5.65-.83-10.61,5.55-11.53,4.95-.72,5.56.03,10.34-2.62,14.12-7.81,46.07-33.47,56.49-45.7,4.49-5.27,8.12-15.46,15.71-16.44ZM637.64,132.54c.79-.51,2.37-10.53,2.48-12.15s.44-11.11-1.21-11.23c-2.97,1-18.49,14.27-18.5,16.01,0,1.4,4.19,3.09,5.45,3.68,1.69.79,10.62,4.44,11.78,3.69Z"/>
  <path d="M122.71,69.4c8.27-1.4,18.27,4.47,25.04,8.8,19.66,12.59,35.81,30.14,54.31,44.04,2.7,2.03,5.83,4.61,8.9,5.98,6.24,2.77,14.36.91,12.54,10.75-1.26,6.8-19.4,16.72-25.63,19.47-5,2.21-18.95,7.6-21.88.43-1.88-4.6,7.67-15.25-2.04-15.26-6.49-.01-23.14,8.96-25.76,15.05-4.13,9.6,11.65,3.97,12.12,13.03.33,6.25-6.46,10.41-11.11,13.4-5.41,3.48-23.35,14.42-25.76,2.81-1.19-5.74,2.8-6.38,4.58-10.08,2.41-5-.12-23.77-.92-30.04-1.6-12.53-4.54-32.88-9.6-44.13-4.15-9.24-12.77-16.65-4.93-27.13,2.03-2.71,6.75-6.55,10.15-7.12ZM141.57,135.94c.81.2,1.5-.11,2.25-.36,1.59-.53,13.38-7.35,13.8-8.27,1.31-2.84-4.53-6.26-6.61-7.77-4.11-3-8.52-5.76-13.3-7.57l3.85,23.96Z"/>
  <path d="M113.71,321.14c1.63,2.39-13.25,14.48-15.26,17.09-7.81,10.19-13.61,37.52-28.16,39.01-19.83,2.03-21.52-19.13-13.75-32.45,6.12-10.48,21.97-18.6,33.3-21.87,7.6-2.19,16.08-3.76,23.87-1.78Z"/>
  <path d="M138.67,373.88c.07,16.93,14.17,44.95,4.52,60.4-6.13,9.82-22.81,10.87-28.29.06-7.78-15.35,4.52-39.37,13.78-51.98,2.32-3.15,5.75-8.77,9.99-8.49Z"/>
  <path d="M117.56,299.05c-6.98.38-13.87-1.04-20.82.05-10.2,1.6-18.74,8.13-29.79,7.14-11.98-1.07-15.72-11.21-8.6-20.58,13.32-17.52,52.56-6.74,59.22,13.39Z"/>
  <path class="st0" d="M418.8,325.1c12.11-.11,25.76.46,37.69,2.34,27.43,4.31,32.08,11.55,34.86,38.54,1.46,14.18,1.33,28.87,2.4,43.17,4.03,53.76,11.71,107.21,13.44,161.17.24,7.48,2.67,18.01-5.27,22.56-8.08,4.63-29.92,2.22-39.58,2.12-23.53-.24-47.08.35-70.55,2.9-14.86,1.62-43.58,8.45-56.96,4.66-7.22-2.05-12.67-8.45-13.33-15.94-1.2-13.63-1.02-27.56-1.93-41.24-3.87-58.2-11.22-116.81-11.97-175.11-.12-9.42-1.34-16.46,6.95-23.23,20.36-16.64,78.13-21.69,104.25-21.94ZM433.67,339.96c-7.02.64-15.01,6.94-16.94,13.77-2.13,7.54,1.77,8.77,7.41,4.52,4.24-3.2,4.79-6.48,11.34-5.97,6.97.54,13.59,11.32,18.52,10.79,3.79-.41,5.23-4.6,4.51-7.93-1.61-7.53-17.63-15.85-24.84-15.19ZM352.08,346.19c-5.26.76-12.55,6.17-15.15,10.76-2.13,3.77-5.47,16.97,2.03,15.97,5.25-.7,8.73-14.24,15.98-15.71,7.85-1.59,8.37,2,13.6,4.9,5.51,3.05,9.15-2.33,6.78-7.26-3.71-7.7-15.59-9.76-23.24-8.65ZM419.37,490.93c-1.96,9.03,5.71,10.75,12.84,11.87,18.77,2.96,43.19-11.78,41.38-32.73-.66-7.63-7.78-12.68-8.13-17.81-.32-4.64,3.14-13.84,3.76-19.19,2.24-19.15-8-70.61-36.41-62.3-17.41,5.09-20.74,39.28-19.69,54.22.73,10.39,5.38,21.04,4.82,31.64-.26,1.35-4.56,3.55-5.78,4.78-2.62,2.64-5.7,10.6-2.73,13.55,3.18,3.17,8.65-3.45,11.54-5.22,8.13-4.99,22.15-10.02,31.36-6.24,10.13,4.16,9.83,13.94,2.33,20.72-6.46,5.84-14.68,7.03-23.07,7.68l-12.21-.98ZM358.32,375.93c-16.27,2.31-21.32,28.13-21.98,41.35-.99,19.77,5.42,62.52,32.88,60.21,28.58-2.4,23.16-53.8,17.86-72.53-3.4-12.03-13.77-31.16-28.77-29.03ZM349.74,512.58c6.22,21.53,12.09,44.89,30.54,59.41,28.28,22.25,61.01,9.98,69.09-24.45,1.17-5,1.47-15.17,3.5-19.05s9.37-4.07,9.71-10.47c.47-8.84-11.74-1.52-15.61-.22-17.31,5.86-42.28,5.61-59.85.82-5.95-1.63-22.13-7.99-26.07-12.31-4.43-4.87,5.23-16.91-4.03-16.08-5.3,3.99-11.62,6.47-16.97,10.39-3.61,2.64-7.87,5.79-6.18,10.81,2.51,7.49,13.77-.21,15.87,1.15Z"/>
  <path class="st0" d="M622.1,495.25c-13.59-1.53-27.14-14.65-32.14-26.87-2.96-7.24-6.01-23.01-1.42-29.7,5.02-7.3,7.51,2.87,9.81,5.96s8.81,8.73,12.48,4.67c.35-.38,1.28-1.93,1.36-2.38.41-2.2-5.8-11.36-7.06-14.34-12.18-28.87,10.5-44.69,10.39-70.45-.05-12.97-8.94-28.41-8-39.75.87-10.48,11.92-13.79,20.41-9.01,12.89,7.24,17.46,26.92,16.5,40.64-1.07,15.25-17,20.43-9.37,38.11,1.31,3.03,3.85,5.34,5.03,8.43-3.18,7.15-4.92,11.34-1.04,18.76,1.24,2.36,5.12,6.71,5.36,9.08.28,2.78-4.84,7.96-5.27,12.91-1.6,18.45,16.53,29.78,33.33,28.53,5.36-.4,19.94-3.31,19.96-10.31.02-7.82-11.21-1.75-14.9-.94-9.56,2.12-27.13-1.23-25.33-14.29,1.58-11.44,26.14-13.97,35.13-13.31,22.51,1.64,26.11,17.3,13.19,33.8-13.82,17.65-40.94,24.07-61.53,15.49-5.03-2.1-8.52-5.75-12.96-8.63-2.75-1.78-10.03-6.97-12.23-2.42-2.84,5.88,4.82,12.85,8.75,16.45,1.96,1.79,8.73,6.42,9.62,8.14.44.85.07.91-.49,1.45-3.07-.25-6.59.34-9.6,0Z"/>
  <path class="st0" d="M262.11,584.36c1.4,1.48,9.2-2.82,10.62-4.26,1.81-1.84,5.76-9.72,8.63-9.1.56.12,2.29,5.67,2.56,6.65,7.64,27.58-6.39,60.67-34.79,69.04-17.89,5.28-43.99,3.27-55.48-13.34-8.56-12.38-4.11-22.51,11.49-21.56,9.18.56,6.47,3.87,8.04,10.67,1.05,4.54,5.47,10.83,10.29,11.79,7.61,1.53.21-10.12-.5-12.94-1.45-5.71,2.78-9.86,3.75-15.26,1.47-2.08,16.64-.59,20.49-7.34,5.95-10.43-11.48-5.53-16.17-5.58-6.39-.06-14.33-4.21-15.39-11.05-1.19-7.65,5.91-2.54,8.79-2.05,13.19,2.23,26.27-9.54,27.9-22.24.46-3.56-.9-10.86,4.16-11.67,10.62-1.71,12.36,17.54,10.64,24.54-.89,3.62-5.75,9.75-5.52,12.51.03.36.25.92.5,1.19Z"/>
  <path class="st0" d="M437.99,613.39l38.27-.16c.98-.05,1.91.45,2.86.49,15,.68,51.03,1.39,55.18,20.15.79,3.56.79,5.36-3.25,4.69-7.34-1.22-15.77-5.43-24.25-6.94-28.31-5.03-59.08-4.61-87.65-3.48-36.7,1.46-92.09,6.06-125.34,21.48-2.18,1.01-9.17,5.64-10.56,5.76-.69.06-2.27-1.57-2.45-2.18-1.32-4.4,3.37-7.92,6.47-10.13,34.31-24.54,109.02-28.65,150.72-29.69Z"/>
  <path class="st0" d="M499.98,316.8c-15.68-6.86-32.58-11.19-49.66-12.95-39.31-4.04-103.25,1.82-139.85,17.04-12.4,5.16-20.99,12.07-32.2,18.65-2.83,1.66-10.9,6.93-7.35-1.11,2.71-6.12,14.69-15.63,20.39-19.43,42.66-28.48,122.63-35.53,171.74-24.51,13.36,3,31.08,8.85,36.94,22.31Z"/>
  <path class="st0" d="M196.6,313.51c.69-.19,1.31-.02,1.92.3,21.66,12.52,63.38,29.73,72.12,55.02,1.06,3.06,3.12,8.71-2.1,6.42-7.1-3.12-18.76-14.88-26.07-19.98-14.04-9.79-30.31-17.5-43.56-28.4-1.34-1.1-6.32-5.15-6.51-6.49-.24-1.72,2.57-6.41,4.2-6.86Z"/>
  <path class="st0" d="M676.47,397.05c13.11-1.04,36.63,3.13,34.59,20.67-1.08,9.25-7.56,3.65-13.07,2.14-6.43-1.76-16.47-2.43-23.1-1.84s-19.39,6.74-23.54-.94c-6.88-12.72,16.49-19.34,25.12-20.03Z"/>
  <path class="st0" d="M335.4,249.17c-4.14-.73-4.23-4.92-3.83-8.4s2.19-4.94,4.84-6.67c19.2-12.55,72.19-15.77,92.24-4.99,4.81,2.59,6.55,6.36,5.16,11.7-1.62,1.16-7.23-2.61-9.16-3.38-18.5-7.36-46.97-4.4-66.22-.5-7.99,1.62-20.26,3.39-23.03,12.24Z"/>
  <path class="st0" d="M676.94,364.43c8.76-.84,22.08,2.18,26.87,10.27,1.91,3.23,5.17,12.75-1.03,12.58-4.57-.12-10.37-2.87-14.96-3.32-7.85-.77-18.7.23-26.25,2.53-2.95.9-9.87,4.81-12.23,3.83-2.87-1.19-3.36-5.72-2.9-8.41,1.73-10.16,21.69-16.63,30.49-17.48Z"/>
  <path class="st0" d="M254.29,499.58l5.72,30.84c-.61,1.89-9.4,2.41-11.6,3.3-2.08.84-4.65,4.24-6.71,3.67-.56-.15-4.75-4.46-5.34-5.25-11.47-15.13,2.65-30.01,17.93-32.56Z"/>
  <path class="st0" d="M173.09,302.05c13.84-2.16,1.55,18.97-1.59,23.83-2.71,4.17-6.68,9.86-11.58,11.44-7.07,2.28-7.92-4.06-7.21-9.6,1.02-7.9,12.11-24.38,20.38-25.67Z"/>
  <polygon class="st0" points="369.47 259.24 370.43 275.07 358.44 276.03 357.47 260.2 369.47 259.24"/>
  <path class="st0" d="M410.11,254.06c3.5-1.06,5.56,1.49,6.27,4.57-.25,3.52,2.33,13.4.32,15.93-.94,1.18-2.8,1.74-4.27,1.46-4.36-.82-4.4-14.05-4.09-17.49.12-1.33.4-4.06,1.76-4.47Z"/>
  <path class="st0" d="M215.92,601.74c-5.07-.57-11.03-.61-15.98-1.55-.51-.1-1.03-.24-1.33-.7-1.54-2.55,5.2-9.46,6.97-9.29s11.6,10.4,10.34,11.54Z"/>
  <path class="st0" d="M602.54,758.23c18.03-3.05,26.23,25.27,29.74,38.64,3.03,11.54,8.67,37.64-7.06,42.08-22.38,6.31-32.23-35.36-33.58-50.85-.78-8.88-.76-27.89,10.91-29.86Z"/>
  <path class="st0" d="M342.47,758.23c16.72-2.82,24.46,20.53,28.19,32.99s11.54,42.15-4.66,47.62c-23.14,7.81-33.38-35.07-34.92-50.75-.91-9.26-.75-27.81,11.39-29.86Z"/>
  <path class="st0" d="M381.34,20.47c9.61-1.77,16.76,7.19,19.68,15.12,5.78,15.72,10.24,59.81-14.04,61.99-8.28.74-8.64-5.64-9.35-12.23-1.54-14.35-.1-29.27.02-43.62.04-5.21-1.08-12.07-.51-16.82.26-2.19,1.97-4.02,4.2-4.43Z"/>
  <path class="st0" d="M253.22,36.3c11.89-2.17,14.58,17.76,12.87,25.81-1.09,5.15-7.88,10.1-10.92,3.19-2.01-4.56-4.19-14.79-5.04-19.9-.6-3.61-1.83-8.2,3.09-9.1Z"/>
  <path class="st0" d="M637.64,132.54c-1.16.74-10.09-2.91-11.78-3.69-1.27-.59-5.46-2.28-5.45-3.68,0-1.74,15.53-15.01,18.5-16.01,1.65.12,1.32,9.54,1.21,11.23s-1.69,11.64-2.48,12.15Z"/>
  <path class="st0" d="M141.57,135.94l-3.85-23.96c4.77,1.81,9.19,4.57,13.3,7.57,2.08,1.51,7.92,4.94,6.61,7.77-.42.91-12.21,7.73-13.8,8.27-.74.25-1.43.56-2.25.36Z"/>
  <path d="M349.74,512.58c-2.11-1.36-13.36,6.33-15.87-1.15-1.69-5.02,2.57-8.17,6.18-10.81,5.35-3.91,11.66-6.39,16.97-10.39,9.27-.83-.4,11.21,4.03,16.08,3.94,4.32,20.12,10.69,26.07,12.31,17.57,4.8,42.54,5.05,59.85-.82,3.86-1.31,16.07-8.63,15.61.22-.34,6.4-7.68,6.6-9.71,10.47s-2.33,14.05-3.5,19.05c-8.08,34.43-40.81,46.69-69.09,24.45-18.45-14.51-24.32-37.88-30.54-59.41ZM382.34,543.82c-8.06.46-7.67,4.09-3.95,9.91,8.38,13.11,36.08,22.29,47.89,10.06,8.26-8.55-6.14-17.18-12.54-14.46-2.53,1.07-2.14,5.26-3.73,6.82-3.34,3.26-6.49-3.69-8.37-5.52-4.13-4.03-13.59-7.14-19.3-6.81Z"/>
  <path d="M419.37,490.93l12.21.98c8.39-.65,16.61-1.84,23.07-7.68,7.51-6.79,7.81-16.56-2.33-20.72-9.2-3.78-23.23,1.25-31.36,6.24-2.89,1.77-8.36,8.39-11.54,5.22-2.97-2.96.11-10.92,2.73-13.55,1.22-1.23,5.52-3.42,5.78-4.78.56-10.61-4.09-21.25-4.82-31.64-1.05-14.94,2.28-49.13,19.69-54.22,28.4-8.31,38.65,43.16,36.41,62.3-.63,5.35-4.08,14.55-3.76,19.19.35,5.13,7.47,10.18,8.13,17.81,1.81,20.95-22.6,35.69-41.38,32.73-7.13-1.12-14.8-2.85-12.84-11.87ZM437.99,384.06c-4.71.49-7.37,6.15-8.55,10.2-.84,2.9-2.09,4.19,1.12,5.62,2.43,1.08,4.87,1.03,7.29,2.79,11.23,8.14,9.55,34.89,8.96,47.17,3.03,2.28,7.25,2.28,8.69-1.71,4.5-12.48,2.28-39.42-3.41-51.54-2.27-4.83-8.08-13.16-14.1-12.53Z"/>
  <path d="M358.32,375.93c15-2.13,25.37,17,28.77,29.03,5.29,18.72,10.71,70.12-17.86,72.53-27.46,2.31-33.87-40.45-32.88-60.21.66-13.22,5.7-39.04,21.98-41.35ZM351.24,406.02c11.38-1.45,15.58,10.61,17.6,19.58,2.98,13.22,1.82,26.74-2.14,39.6,4.89,5.89,8.57-4.22,9.97-8.09,6.6-18.18,4.65-44.99-6.53-61.13-10.8-15.59-16.89-1.82-18.91,10.03Z"/>
  <path d="M352.08,346.19c7.65-1.1,19.53.95,23.24,8.65,2.37,4.93-1.27,10.31-6.78,7.26-5.23-2.89-5.75-6.49-13.6-4.9-7.25,1.47-10.73,15.01-15.98,15.71-7.5,1-4.16-12.2-2.03-15.97,2.6-4.59,9.88-10,15.15-10.76Z"/>
  <path d="M433.67,339.96c7.2-.66,23.22,7.66,24.84,15.19.71,3.33-.72,7.52-4.51,7.93-4.93.53-11.55-10.25-18.52-10.79-6.55-.51-7.1,2.77-11.34,5.97-5.63,4.25-9.53,3.01-7.41-4.52,1.93-6.83,9.92-13.13,16.94-13.77Z"/>
  <path class="st0" d="M382.34,543.82c5.71-.33,15.17,2.79,19.3,6.81,1.87,1.82,5.02,8.78,8.37,5.52,1.6-1.56,1.21-5.74,3.73-6.82,6.4-2.72,20.8,5.9,12.54,14.46-11.81,12.23-39.51,3.05-47.89-10.06-3.72-5.82-4.11-9.45,3.95-9.91Z"/>
  <path class="st0" d="M437.99,384.06c6.02-.63,11.83,7.7,14.1,12.53,5.69,12.12,7.91,39.06,3.41,51.54-1.44,3.99-5.66,3.99-8.69,1.71.59-12.28,2.27-39.03-8.96-47.17-2.42-1.75-4.86-1.71-7.29-2.79-3.21-1.43-1.96-2.72-1.12-5.62,1.17-4.05,3.83-9.71,8.55-10.2Z"/>
  <path class="st0" d="M351.24,406.02c2.02-11.84,8.11-25.62,18.91-10.03,11.18,16.13,13.13,42.95,6.53,61.13-1.4,3.87-5.09,13.98-9.97,8.09,3.96-12.87,5.11-26.38,2.14-39.6-2.02-8.97-6.22-21.03-17.6-19.58Z"/>
</svg>